<svg xmlns="http://www.w3.org/2000/svg" xmlns:xlink="http://www.w3.org/1999/xlink" xmlns:lucid="lucid" width="1050" height="650"><g transform="translate(0 0)" lucid:page-tab-id="0_0"><path d="M0 0h1050v650H0z" fill="#fff"/><path d="M860 334.87c0 3.3-2.7 6-6 6H672.3c-3.33 0-6-2.7-6-6v-198c0-3.32 2.67-6 6-6H854c3.3 0 6 2.68 6 6z" fill="#fff" fill-opacity="0"/><path d="M840.63 340.87H854c3.3 0 6-2.7 6-6v-198c0-3.32-2.7-6-6-6h-13.37" stroke="#5e5e5e" stroke-width="3" fill="none"/><path d="M20 220.87h44.57v40H20z" stroke="#5e5e5e" stroke-width="3" fill="#ff8f80"/><use xlink:href="#a" transform="matrix(1,0,0,1,25,225.86805555555554) translate(10.709876543209877 21.430555555555557)"/><path d="M64.57 220.87h44.57v40H64.57z" stroke="#5e5e5e" stroke-width="3" fill="#ffdf71"/><use xlink:href="#a" transform="matrix(1,0,0,1,69.57142857142867,225.86805555555554) translate(10.709876543209877 21.430555555555557)"/><path d="M109.14 220.87h44.57v40h-44.56z" stroke="#5e5e5e" stroke-width="3" fill="#5abaa7"/><use xlink:href="#a" transform="matrix(1,0,0,1,114.14285714285722,225.86805555555554) translate(10.709876543209877 21.430555555555557)"/><path d="M153.7 220.87h44.6v40h-44.6z" stroke="#5e5e5e" stroke-width="3" fill="#83bbe5"/><use xlink:href="#a" transform="matrix(1,0,0,1,158.71428571428578,225.86805555555554) translate(10.709876543209877 21.430555555555557)"/><path d="M220.57 220.87h44.57v40h-44.57z" stroke="#5e5e5e" stroke-width="3" fill="#ff8f80"/><use xlink:href="#b" transform="matrix(1,0,0,1,225.5714285714286,225.86805555555554) translate(10.709876543209877 21.430555555555557)"/><path d="M265.14 220.87h44.57v40h-44.56z" stroke="#5e5e5e" stroke-width="3" fill="#ffdf71"/><use xlink:href="#b" transform="matrix(1,0,0,1,270.1428571428572,225.86805555555554) translate(10.709876543209877 21.430555555555557)"/><path d="M309.7 220.87h44.6v40h-44.6z" stroke="#5e5e5e" stroke-width="3" fill="#5abaa7"/><use xlink:href="#b" transform="matrix(1,0,0,1,314.7142857142858,225.86805555555554) translate(10.709876543209877 21.430555555555557)"/><path d="M354.3 220.87h44.56v40H354.3z" stroke="#5e5e5e" stroke-width="3" fill="#83bbe5"/><use xlink:href="#b" transform="matrix(1,0,0,1,359.28571428571445,225.86805555555554) translate(10.709876543209877 21.430555555555557)"/><path d="M421.14 220.87h44.57v40h-44.56z" stroke="#5e5e5e" stroke-width="3" fill="#ff8f80"/><use xlink:href="#c" transform="matrix(1,0,0,1,426.14285714285734,225.86805555555554) translate(7.314814814814815 21.430555555555557)"/><path d="M465.7 220.87h44.6v40h-44.6z" stroke="#5e5e5e" stroke-width="3" fill="#ffdf71"/><use xlink:href="#c" transform="matrix(1,0,0,1,470.7142857142857,225.86805555555554) translate(7.314814814814815 21.430555555555557)"/><path d="M510.3 220.87h44.56v40H510.3z" stroke="#5e5e5e" stroke-width="3" fill="#5abaa7"/><use xlink:href="#c" transform="matrix(1,0,0,1,515.2857142857144,225.86805555555554) translate(7.314814814814815 21.430555555555557)"/><path d="M554.86 220.87h44.57v40h-44.57z" stroke="#5e5e5e" stroke-width="3" fill="#83bbe5"/><use xlink:href="#c" transform="matrix(1,0,0,1,559.8571428571431,225.86805555555554) translate(7.314814814814815 21.430555555555557)"/><path d="M621.7 220.87h44.6v40h-44.6z" stroke="#5e5e5e" stroke-width="3" fill="#ff8f80"/><use xlink:href="#d" transform="matrix(1,0,0,1,626.7142857142858,225.86805555555554) translate(-0.12037037037037024 19.88888888888889)"/><path d="M666.3 220.87h44.56v40H666.3z" stroke="#5e5e5e" stroke-width="3" fill="#ffdf71"/><use xlink:href="#d" transform="matrix(1,0,0,1,671.2857142857144,225.86805555555554) translate(-0.12037037037037024 19.88888888888889)"/><path d="M710.86 220.87h44.57v40h-44.57z" stroke="#5e5e5e" stroke-width="3" fill="#5abaa7"/><use xlink:href="#d" transform="matrix(1,0,0,1,715.8571428571431,225.86805555555554) translate(-0.12037037037037024 19.88888888888889)"/><path d="M755.43 220.87H800v40h-44.57z" stroke="#5e5e5e" stroke-width="3" fill="#83bbe5"/><use xlink:href="#d" transform="matrix(1,0,0,1,760.4285714285716,225.86805555555554) translate(-0.12037037037037024 19.88888888888889)"/><g fill="none"><path d="M794 280.87c3.3 0 6 2.68 6 6v68c0 3.3-2.7 6-6 6H26c-3.3 0-6-2.7-6-6v-68c0-3.32 2.7-6 6-6z"/><path d="M20 280.87c0 5.52 4.48 10 10 10h370c5.52 0 10 4.48 10 10 0-5.52 4.48-10 10-10h370c5.52 0 10-4.48 10-10" stroke="#5e5e5e" stroke-width="3"/></g><g fill="none"><path d="M26 200.87c-3.3 0-6-2.7-6-6v-68c0-3.32 2.7-6 6-6h168c3.3 0 6 2.68 6 6v68c0 3.3-2.7 6-6 6z"/><path d="M200 200.87c0-5.52-4.48-10-10-10h-70c-5.52 0-10-4.48-10-10 0 5.52-4.48 10-10 10H30c-5.52 0-10 4.48-10 10" stroke="#5e5e5e" stroke-width="3"/></g><path d="M20 126c0-3.3 2.7-6 6-6h248c3.3 0 6 2.7 6 6v49.74c0 3.3-2.7 6-6 6H26c-3.3 0-6-2.7-6-6z" stroke="#000" stroke-opacity="0" stroke-width="3" fill="#fff" fill-opacity="0"/><use xlink:href="#e" transform="matrix(1,0,0,1,25.000000000000057,124.99999999999999) translate(0 34.0234375)"/><use xlink:href="#f" transform="matrix(1,0,0,1,25.000000000000057,124.99999999999999) translate(26.671006944444443 34.0234375)"/><path d="M20 306.87c0-3.32 2.7-6 6-6h768c3.3 0 6 2.68 6 6v48c0 3.3-2.7 6-6 6H26c-3.3 0-6-2.7-6-6z" stroke="#000" stroke-opacity="0" stroke-width="3" fill="#fff" fill-opacity="0"/><use xlink:href="#g" transform="matrix(1,0,0,1,25,305.86805555555554) translate(218.80620659722223 17.7734375)"/><use xlink:href="#h" transform="matrix(1,0,0,1,25,305.86805555555554) translate(272.1482204861111 17.7734375)"/><use xlink:href="#i" transform="matrix(1,0,0,1,25,305.86805555555554) translate(352.16124131944446 17.7734375)"/><use xlink:href="#j" transform="matrix(1,0,0,1,25,305.86805555555554) translate(405.50325520833337 17.7734375)"/><use xlink:href="#k" transform="matrix(1,0,0,1,25,305.86805555555554) translate(485.5162760416667 17.7734375)"/><use xlink:href="#l" transform="matrix(1,0,0,1,25,305.86805555555554) translate(278.81597222222223 39.99565972222222)"/><use xlink:href="#m" transform="matrix(1,0,0,1,25,305.86805555555554) translate(318.8224826388889 39.99565972222222)"/><use xlink:href="#n" transform="matrix(1,0,0,1,25,305.86805555555554) translate(398.83550347222223 39.99565972222222)"/><path d="M20 501.74h44.57v40H20z" stroke="#5e5e5e" stroke-width="3" fill="#ff8f80"/><use xlink:href="#a" transform="matrix(1,0,0,1,25,506.7361111111111) translate(10.709876543209877 21.430555555555557)"/><path d="M64.57 501.74h44.57v40H64.57z" stroke="#5e5e5e" stroke-width="3" fill="#ff8f80"/><use xlink:href="#b" transform="matrix(1,0,0,1,69.57142857142867,506.7361111111111) translate(10.709876543209877 21.430555555555557)"/><path d="M109.14 501.74h44.57v40h-44.56z" stroke="#5e5e5e" stroke-width="3" fill="#ff8f80"/><use xlink:href="#c" transform="matrix(1,0,0,1,114.14285714285722,506.7361111111111) translate(7.314814814814815 21.430555555555557)"/><path d="M153.7 501.74h44.6v40h-44.6z" stroke="#5e5e5e" stroke-width="3" fill="#ff8f80"/><use xlink:href="#d" transform="matrix(1,0,0,1,158.71428571428578,506.7361111111111) translate(-0.12037037037037024 19.88888888888889)"/><path d="M220.57 501.74h44.57v40h-44.57z" stroke="#5e5e5e" stroke-width="3" fill="#ffdf71"/><use xlink:href="#a" transform="matrix(1,0,0,1,225.5714285714286,506.7361111111111) translate(10.709876543209877 21.430555555555557)"/><path d="M265.14 501.74h44.57v40h-44.56z" stroke="#5e5e5e" stroke-width="3" fill="#ffdf71"/><use xlink:href="#b" transform="matrix(1,0,0,1,270.1428571428572,506.7361111111111) translate(10.709876543209877 21.430555555555557)"/><path d="M309.7 501.74h44.6v40h-44.6z" stroke="#5e5e5e" stroke-width="3" fill="#ffdf71"/><use xlink:href="#c" transform="matrix(1,0,0,1,314.7142857142858,506.7361111111111) translate(7.314814814814815 21.430555555555557)"/><path d="M354.3 501.74h44.56v40H354.3z" stroke="#5e5e5e" stroke-width="3" fill="#ffdf71"/><use xlink:href="#d" transform="matrix(1,0,0,1,359.28571428571445,506.7361111111111) translate(-0.12037037037037024 19.88888888888889)"/><path d="M421.14 501.74h44.57v40h-44.56z" stroke="#5e5e5e" stroke-width="3" fill="#5abaa7"/><use xlink:href="#a" transform="matrix(1,0,0,1,426.14285714285734,506.7361111111111) translate(10.709876543209877 21.430555555555557)"/><path d="M465.7 501.74h44.6v40h-44.6z" stroke="#5e5e5e" stroke-width="3" fill="#5abaa7"/><use xlink:href="#b" transform="matrix(1,0,0,1,470.7142857142857,506.7361111111111) translate(10.709876543209877 21.430555555555557)"/><path d="M510.3 501.74h44.56v40H510.3z" stroke="#5e5e5e" stroke-width="3" fill="#5abaa7"/><use xlink:href="#c" transform="matrix(1,0,0,1,515.2857142857144,506.7361111111111) translate(7.314814814814815 21.430555555555557)"/><path d="M554.86 501.74h44.57v40h-44.57z" stroke="#5e5e5e" stroke-width="3" fill="#5abaa7"/><use xlink:href="#d" transform="matrix(1,0,0,1,559.8571428571431,506.7361111111111) translate(-0.12037037037037024 19.88888888888889)"/><path d="M621.7 501.74h44.6v40h-44.6z" stroke="#5e5e5e" stroke-width="3" fill="#83bbe5"/><use xlink:href="#a" transform="matrix(1,0,0,1,626.7142857142858,506.7361111111111) translate(10.709876543209877 21.430555555555557)"/><path d="M666.3 501.74h44.56v40H666.3z" stroke="#5e5e5e" stroke-width="3" fill="#83bbe5"/><use xlink:href="#b" transform="matrix(1,0,0,1,671.2857142857144,506.7361111111111) translate(10.709876543209877 21.430555555555557)"/><path d="M710.86 501.74h44.57v40h-44.57z" stroke="#5e5e5e" stroke-width="3" fill="#83bbe5"/><use xlink:href="#c" transform="matrix(1,0,0,1,715.8571428571431,506.7361111111111) translate(7.314814814814815 21.430555555555557)"/><path d="M755.43 501.74H800v40h-44.57z" stroke="#5e5e5e" stroke-width="3" fill="#83bbe5"/><use xlink:href="#d" transform="matrix(1,0,0,1,760.4285714285716,506.7361111111111) translate(-0.12037037037037024 19.88888888888889)"/><g fill="none"><path d="M794 561.74c3.3 0 6 2.68 6 6v68c0 3.3-2.7 6-6 6H26c-3.3 0-6-2.7-6-6v-68c0-3.32 2.7-6 6-6z"/><path d="M20 561.74c0 5.52 4.48 10 10 10h370c5.52 0 10 4.47 10 10 0-5.53 4.48-10 10-10h370c5.52 0 10-4.48 10-10" stroke="#5e5e5e" stroke-width="3"/></g><g fill="none"><path d="M26 481.74c-3.3 0-6-2.7-6-6v-68c0-3.32 2.7-6 6-6h168c3.3 0 6 2.68 6 6v68c0 3.3-2.7 6-6 6z"/><path d="M200 481.74c0-5.53-4.48-10-10-10h-70c-5.52 0-10-4.48-10-10 0 5.52-4.48 10-10 10H30c-5.52 0-10 4.47-10 10" stroke="#5e5e5e" stroke-width="3"/></g><path d="M20 406.87c0-3.32 2.7-6 6-6h248c3.3 0 6 2.68 6 6v49.73c0 3.32-2.7 6-6 6H26c-3.3 0-6-2.68-6-6z" stroke="#000" stroke-opacity="0" stroke-width="3" fill="#fff" fill-opacity="0"/><use xlink:href="#e" transform="matrix(1,0,0,1,25.000000000000057,405.86805555555554) translate(0 34.0234375)"/><use xlink:href="#o" transform="matrix(1,0,0,1,25.000000000000057,405.86805555555554) translate(26.671006944444443 34.0234375)"/><path d="M249.43 586.87c0-3.32 2.68-6 6-6h338c3.3 0 6 2.68 6 6v48c0 3.3-2.7 6-6 6h-338c-3.32 0-6-2.7-6-6z" stroke="#000" stroke-opacity="0" stroke-width="3" fill="#fff" fill-opacity="0"/><g><use xlink:href="#g" transform="matrix(1,0,0,1,254.42857142857184,585.8680555555555) translate(0 30.2734375)"/><use xlink:href="#p" transform="matrix(1,0,0,1,254.42857142857184,585.8680555555555) translate(53.342013888888886 30.2734375)"/><use xlink:href="#i" transform="matrix(1,0,0,1,254.42857142857184,585.8680555555555) translate(133.35503472222223 30.2734375)"/><use xlink:href="#q" transform="matrix(1,0,0,1,254.42857142857184,585.8680555555555) translate(186.69704861111111 30.2734375)"/></g><path d="M880 206.87c0-3.32 2.7-6 6-6h148c3.3 0 6 2.68 6 6v48c0 3.3-2.7 6-6 6H886c-3.3 0-6-2.7-6-6z" stroke="#000" stroke-opacity="0" stroke-width="3" fill="#fff" fill-opacity="0"/><g><use xlink:href="#r" transform="matrix(1,0,0,1,885,205.86805555555554) translate(0 30.2734375)"/></g><g><path d="M860 615.74c0 3.3-2.7 6-6 6H672.3c-3.33 0-6-2.7-6-6v-198c0-3.32 2.67-6 6-6H854c3.3 0 6 2.68 6 6z" fill="#fff" fill-opacity="0"/><path d="M840.63 621.74H854c3.3 0 6-2.7 6-6v-198c0-3.32-2.7-6-6-6h-13.37" stroke="#5e5e5e" stroke-width="3" fill="none"/></g><path d="M880 487.74c0-3.32 2.7-6 6-6h128c3.3 0 6 2.68 6 6v48c0 3.3-2.7 6-6 6H886c-3.3 0-6-2.7-6-6z" stroke="#000" stroke-opacity="0" stroke-width="3" fill="#fff" fill-opacity="0"/><g><use xlink:href="#s" transform="matrix(1,0,0,1,885,486.7361111111111) translate(0 30.2734375)"/></g><path d="M190.14 26c0-3.3 2.7-6 6-6H652.7c3.33 0 6 2.7 6 6v48c0 3.3-2.67 6-6 6H196.15c-3.3 0-6-2.7-6-6z" stroke="#000" stroke-opacity="0" stroke-width="3" fill="#fff" fill-opacity="0"/><g><use xlink:href="#t" transform="matrix(1,0,0,1,195.14285714285748,25) translate(5.463541666666828 33.828124999999986)"/><use xlink:href="#u" transform="matrix(1,0,0,1,195.14285714285748,25) translate(69.47395833333344 33.828124999999986)"/><use xlink:href="#v" transform="matrix(1,0,0,1,195.14285714285748,25) translate(101.47916666666674 33.828124999999986)"/><use xlink:href="#w" transform="matrix(1,0,0,1,195.14285714285748,25) translate(213.49739583333334 33.828124999999986)"/><use xlink:href="#x" transform="matrix(1,0,0,1,195.14285714285748,25) translate(277.5078125 33.828124999999986)"/><use xlink:href="#y" transform="matrix(1,0,0,1,195.14285714285748,25) translate(309.51302083333326 33.828124999999986)"/></g><defs><path fill="#333" d="M101-251c68 0 84 54 84 127C185-50 166 4 99 4S15-52 14-124c-1-75 17-127 87-127zm-1 216c37-5 36-46 36-89s4-89-36-89c-39 0-36 45-36 89 0 43-3 85 36 89" id="z"/><use transform="matrix(0.06790123456790123,0,0,0.06790123456790123,0,0)" xlink:href="#z" id="a"/><path fill="#333" d="M23 0v-37h61v-169l-59 37v-38l62-41h46v211h57V0H23" id="A"/><use transform="matrix(0.06790123456790123,0,0,0.06790123456790123,0,0)" xlink:href="#A" id="b"/><path fill="#333" d="M24 0v-54h51V0H24" id="B"/><g id="c"><use transform="matrix(0.06790123456790123,0,0,0.06790123456790123,0,0)" xlink:href="#B"/><use transform="matrix(0.06790123456790123,0,0,0.06790123456790123,6.790123456790123,0)" xlink:href="#B"/><use transform="matrix(0.06790123456790123,0,0,0.06790123456790123,13.580246913580247,0)" xlink:href="#B"/></g><path fill="#333" d="M147 0L96-86 75-71V0H25v-261h50v150l67-79h53l-66 74L201 0h-54" id="C"/><path fill="#333" d="M14-72v-43h91v43H14" id="D"/><g id="d"><use transform="matrix(0.06790123456790123,0,0,0.06790123456790123,0,0)" xlink:href="#C"/><use transform="matrix(0.06790123456790123,0,0,0.06790123456790123,13.580246913580247,0)" xlink:href="#D"/><use transform="matrix(0.06790123456790123,0,0,0.06790123456790123,21.660493827160494,0)" xlink:href="#A"/></g><path fill="#333" d="M148-1120c216-7 379-89 463-229h166v1204h353V0H157v-145h439v-1021c-79 124-254 184-448 194v-148" id="E"/><use transform="matrix(0.010850694444444444,0,0,0.010850694444444444,0,0)" xlink:href="#E" id="e"/><path fill="#333" d="M873-819c-18-114-119-146-250-146-163 0-245 50-245 151 0 151 170 148 294 185 182 54 388 94 388 320 0 240-189 325-439 329-245 4-410-69-454-268l159-31c24 133 136 168 295 165 144-2 270-31 270-171 0-164-195-160-331-202-167-52-350-87-350-299 0-218 173-315 413-313 220 2 373 77 412 260" id="F"/><path fill="#333" d="M1000-272c3 95 12 159 101 161 21 0 41-3 59-7V-6c-44 10-86 16-139 16-141 2-191-84-197-217h-6C748-76 648 20 446 20c-207 0-318-120-318-322 0-266 194-348 454-354l236-4c12-191-40-305-222-305-140 0-220 47-232 172l-188-17c33-204 181-292 423-292 255 0 401 118 401 364v466zm-683-27c0 109 63 184 175 182 166-3 259-96 306-217 24-65 20-120 20-200-232 7-501-28-501 235" id="G"/><path fill="#333" d="M904-1102c199 0 220 177 220 381V0H956v-686c-3-114 0-215-60-264-70-33-125-4-158 71-26 56-39 140-39 252V0H531v-686c-3-114-1-215-61-264-78-41-136 24-157 84-24 69-39 159-39 259V0H105c-3-360 6-732-6-1082h149c6 50 3 123 8 175 36-100 83-195 216-195 135 0 166 79 196 196 42-105 93-196 236-196" id="H"/><path fill="#333" d="M698-1104c312 3 392 244 392 558 0 315-82 566-392 566-169 0-277-65-331-184h-5c8 188 2 394 4 589H185V-858c0-76-1-156-6-224h175c6 52 9 120 10 178h4c58-122 150-202 330-200zm-49 991c225 0 255-203 255-433 0-225-32-419-253-419-236 0-285 192-285 441 0 237 53 411 283 411" id="I"/><path fill="#333" d="M736-142h380V0H134v-142h422v-1200H267v-142h469v1342" id="J"/><path fill="#333" d="M617-1102c355 0 481 238 477 599H322c5 222 84 388 301 388 144 0 244-59 284-166l158 45C1002-72 854 20 623 20c-342 0-490-220-490-568 0-346 151-554 484-554zm291 461c-18-192-90-328-289-328-194 0-287 128-295 328h584" id="K"/><path fill="#333" d="M114 20l821-1504h178L296 20H114" id="L"/><path fill="#333" d="M631 20c-350 0-501-215-501-562 0-355 162-560 502-560 250 0 399 118 446 323l-192 14c-23-124-109-196-262-196-242 0-305 171-305 415 1 245 61 427 304 427 151 0 248-77 267-215l190 12C1039-107 883 20 631 20" id="M"/><path fill="#333" d="M648-963c-190 6-283 138-283 336V0H185v-1484h181c-2 197 6 404-9 587h3c62-120 159-205 339-205 242 0 351 135 350 381V0H868v-695c1-168-57-273-220-268" id="N"/><path fill="#333" d="M706-1102c241 0 344 136 343 381V0H868v-695c1-168-57-273-220-268-190 6-283 138-283 336V0H185c-3-360 6-732-6-1082h170c4 54 7 126 8 185h3c63-121 164-204 346-205" id="O"/><g id="f"><use transform="matrix(0.010850694444444444,0,0,0.010850694444444444,0,0)" xlink:href="#F"/><use transform="matrix(0.010850694444444444,0,0,0.010850694444444444,13.335503472222221,0)" xlink:href="#G"/><use transform="matrix(0.010850694444444444,0,0,0.010850694444444444,26.671006944444443,0)" xlink:href="#H"/><use transform="matrix(0.010850694444444444,0,0,0.010850694444444444,40.006510416666664,0)" xlink:href="#I"/><use transform="matrix(0.010850694444444444,0,0,0.010850694444444444,53.342013888888886,0)" xlink:href="#J"/><use transform="matrix(0.010850694444444444,0,0,0.010850694444444444,66.67751736111111,0)" xlink:href="#K"/><use transform="matrix(0.010850694444444444,0,0,0.010850694444444444,80.01302083333334,0)" xlink:href="#L"/><use transform="matrix(0.010850694444444444,0,0,0.010850694444444444,93.34852430555557,0)" xlink:href="#M"/><use transform="matrix(0.010850694444444444,0,0,0.010850694444444444,106.6840277777778,0)" xlink:href="#N"/><use transform="matrix(0.010850694444444444,0,0,0.010850694444444444,120.01953125000003,0)" xlink:href="#G"/><use transform="matrix(0.010850694444444444,0,0,0.010850694444444444,133.35503472222226,0)" xlink:href="#O"/><use transform="matrix(0.010850694444444444,0,0,0.010850694444444444,146.69053819444449,0)" xlink:href="#O"/><use transform="matrix(0.010850694444444444,0,0,0.010850694444444444,160.0260416666667,0)" xlink:href="#K"/><use transform="matrix(0.010850694444444444,0,0,0.010850694444444444,173.36154513888894,0)" xlink:href="#J"/></g><path fill="#333" d="M615-1102c343 0 484 203 482 560-1 347-147 562-488 562-336 0-475-219-479-562-4-349 156-560 485-560zm-8 989c240 0 301-180 301-429 0-245-55-427-290-427-236 0-299 181-299 427 0 243 61 429 288 429" id="P"/><g id="g"><use transform="matrix(0.010850694444444444,0,0,0.010850694444444444,0,0)" xlink:href="#P"/><use transform="matrix(0.010850694444444444,0,0,0.010850694444444444,13.335503472222221,0)" xlink:href="#O"/><use transform="matrix(0.010850694444444444,0,0,0.010850694444444444,26.671006944444443,0)" xlink:href="#K"/></g><path fill="#333" d="M365-904c58-129 161-200 334-200 130 0 228 46 293 138s98 233 98 420c0 189-34 331-102 425S824 20 698 20c-170 0-275-64-336-184 0 55-3 116-9 164H179c5-68 6-147 6-223v-1261h180c-2 193 4 394-4 580h4zm283 791c221 0 256-197 256-427 0-229-34-425-254-425-236 0-285 195-285 441 0 237 53 411 283 411" id="Q"/><path fill="#333" d="M914 0L548-499l-132 98V0H236v-1484h180v927l475-525h211L663-617 1125 0H914" id="R"/><g id="h"><use transform="matrix(0.010850694444444444,0,0,0.010850694444444444,0,0)" xlink:href="#Q"/><use transform="matrix(0.010850694444444444,0,0,0.010850694444444444,13.335503472222221,0)" xlink:href="#J"/><use transform="matrix(0.010850694444444444,0,0,0.010850694444444444,26.671006944444443,0)" xlink:href="#P"/><use transform="matrix(0.010850694444444444,0,0,0.010850694444444444,40.006510416666664,0)" xlink:href="#M"/><use transform="matrix(0.010850694444444444,0,0,0.010850694444444444,53.342013888888886,0)" xlink:href="#R"/></g><path fill="#333" d="M839-1102c70 0 148 7 206 17v167c-112-18-268-36-363 15-129 69-208 203-208 395V0H294c-10-367 32-789-52-1082h171c21 75 41 161 48 250h5c67-152 152-270 373-270" id="S"/><g id="i"><use transform="matrix(0.010850694444444444,0,0,0.010850694444444444,0,0)" xlink:href="#I"/><use transform="matrix(0.010850694444444444,0,0,0.010850694444444444,13.335503472222221,0)" xlink:href="#K"/><use transform="matrix(0.010850694444444444,0,0,0.010850694444444444,26.671006944444443,0)" xlink:href="#S"/></g><path fill="#333" d="M528 20c-247 0-343-132-343-381v-721h180v686c-4 177 45 284 224 277 194-8 279-136 279-336v-627h181c3 360-6 732 6 1082H885c-4-54-7-126-8-185h-3C809-64 714 20 528 20" id="T"/><path fill="#333" d="M865-914c-3-187-2-380-2-570h180v1261c0 76 1 155 6 223H877c-8-49-9-116-10-174h-5C801-44 708 26 530 26c-135 0-234-46-297-139s-95-232-95-419c0-377 131-566 392-566 176 0 271 63 335 184zm-286-51c-222 0-255 197-255 427 0 229 31 425 253 425 237 0 286-195 286-441 0-238-52-411-284-411" id="U"/><path fill="#333" d="M745-142h380V0H143v-142h422v-798H246v-142h499v940zM545-1292v-192h200v192H545" id="V"/><g id="j"><use transform="matrix(0.010850694444444444,0,0,0.010850694444444444,0,0)" xlink:href="#G"/><use transform="matrix(0.010850694444444444,0,0,0.010850694444444444,13.335503472222221,0)" xlink:href="#T"/><use transform="matrix(0.010850694444444444,0,0,0.010850694444444444,26.671006944444443,0)" xlink:href="#U"/><use transform="matrix(0.010850694444444444,0,0,0.010850694444444444,40.006510416666664,0)" xlink:href="#V"/><use transform="matrix(0.010850694444444444,0,0,0.010850694444444444,53.342013888888886,0)" xlink:href="#P"/></g><path fill="#333" d="M839-1335c-182-6-269 67-259 253h491v142H580V0H400v-940H138v-142h262c-15-293 132-408 418-402 94 2 200 7 281 21v145c-75-10-177-14-260-17" id="W"/><g id="k"><use transform="matrix(0.010850694444444444,0,0,0.010850694444444444,0,0)" xlink:href="#W"/><use transform="matrix(0.010850694444444444,0,0,0.010850694444444444,13.335503472222221,0)" xlink:href="#S"/><use transform="matrix(0.010850694444444444,0,0,0.010850694444444444,26.671006944444443,0)" xlink:href="#G"/><use transform="matrix(0.010850694444444444,0,0,0.010850694444444444,40.006510416666664,0)" xlink:href="#H"/><use transform="matrix(0.010850694444444444,0,0,0.010850694444444444,53.342013888888886,0)" xlink:href="#K"/></g><path fill="#333" d="M891-1484c-201 251-362 514-362 954 0 441 161 704 362 955H701C500 176 342-90 342-532c0-440 159-704 359-952h190" id="X"/><path fill="#333" d="M809 0L540-499l-151 98L311 0H131l288-1484h180L419-557l577-525h211L678-617 1020 0H809" id="Y"/><g id="l"><use transform="matrix(0.010850694444444444,0,0,0.010850694444444444,0,0)" xlink:href="#X"/><use transform="matrix(0.010850694444444444,0,0,0.010850694444444444,13.335503472222221,0)" xlink:href="#Y"/></g><path fill="#333" d="M682 16c-209 0-323-80-324-285v-671H190v-142h170l58-282h120v282h432v142H538v652c2 114 60 155 182 155 106 0 209-16 297-34v137C921-4 806 16 682 16" id="Z"/><g id="m"><use transform="matrix(0.010850694444444444,0,0,0.010850694444444444,0,0)" xlink:href="#Z"/><use transform="matrix(0.010850694444444444,0,0,0.010850694444444444,13.335503472222221,0)" xlink:href="#P"/><use transform="matrix(0.010850694444444444,0,0,0.010850694444444444,26.671006944444443,0)" xlink:href="#Z"/><use transform="matrix(0.010850694444444444,0,0,0.010850694444444444,40.006510416666664,0)" xlink:href="#G"/><use transform="matrix(0.010850694444444444,0,0,0.010850694444444444,53.342013888888886,0)" xlink:href="#J"/></g><path fill="#333" d="M528-1484c201 248 357 511 357 952 0 442-156 709-357 957H336C537 174 700-89 700-530c0-440-163-703-364-954h192" id="aa"/><g id="n"><use transform="matrix(0.010850694444444444,0,0,0.010850694444444444,0,0)" xlink:href="#Q"/><use transform="matrix(0.010850694444444444,0,0,0.010850694444444444,13.335503472222221,0)" xlink:href="#J"/><use transform="matrix(0.010850694444444444,0,0,0.010850694444444444,26.671006944444443,0)" xlink:href="#P"/><use transform="matrix(0.010850694444444444,0,0,0.010850694444444444,40.006510416666664,0)" xlink:href="#M"/><use transform="matrix(0.010850694444444444,0,0,0.010850694444444444,53.342013888888886,0)" xlink:href="#R"/><use transform="matrix(0.010850694444444444,0,0,0.010850694444444444,66.67751736111111,0)" xlink:href="#F"/><use transform="matrix(0.010850694444444444,0,0,0.010850694444444444,80.01302083333334,0)" xlink:href="#aa"/></g><g id="o"><use transform="matrix(0.010850694444444444,0,0,0.010850694444444444,0,0)" xlink:href="#F"/><use transform="matrix(0.010850694444444444,0,0,0.010850694444444444,13.335503472222221,0)" xlink:href="#G"/><use transform="matrix(0.010850694444444444,0,0,0.010850694444444444,26.671006944444443,0)" xlink:href="#H"/><use transform="matrix(0.010850694444444444,0,0,0.010850694444444444,40.006510416666664,0)" xlink:href="#I"/><use transform="matrix(0.010850694444444444,0,0,0.010850694444444444,53.342013888888886,0)" xlink:href="#J"/><use transform="matrix(0.010850694444444444,0,0,0.010850694444444444,66.67751736111111,0)" xlink:href="#K"/><use transform="matrix(0.010850694444444444,0,0,0.010850694444444444,80.01302083333334,0)" xlink:href="#L"/><use transform="matrix(0.010850694444444444,0,0,0.010850694444444444,93.34852430555557,0)" xlink:href="#W"/><use transform="matrix(0.010850694444444444,0,0,0.010850694444444444,106.6840277777778,0)" xlink:href="#S"/><use transform="matrix(0.010850694444444444,0,0,0.010850694444444444,120.01953125000003,0)" xlink:href="#G"/><use transform="matrix(0.010850694444444444,0,0,0.010850694444444444,133.35503472222226,0)" xlink:href="#H"/><use transform="matrix(0.010850694444444444,0,0,0.010850694444444444,146.69053819444449,0)" xlink:href="#K"/></g><g id="p"><use transform="matrix(0.010850694444444444,0,0,0.010850694444444444,0,0)" xlink:href="#I"/><use transform="matrix(0.010850694444444444,0,0,0.010850694444444444,13.335503472222221,0)" xlink:href="#J"/><use transform="matrix(0.010850694444444444,0,0,0.010850694444444444,26.671006944444443,0)" xlink:href="#G"/><use transform="matrix(0.010850694444444444,0,0,0.010850694444444444,40.006510416666664,0)" xlink:href="#O"/><use transform="matrix(0.010850694444444444,0,0,0.010850694444444444,53.342013888888886,0)" xlink:href="#K"/></g><g id="q"><use transform="matrix(0.010850694444444444,0,0,0.010850694444444444,0,0)" xlink:href="#M"/><use transform="matrix(0.010850694444444444,0,0,0.010850694444444444,13.335503472222221,0)" xlink:href="#N"/><use transform="matrix(0.010850694444444444,0,0,0.010850694444444444,26.671006944444443,0)" xlink:href="#G"/><use transform="matrix(0.010850694444444444,0,0,0.010850694444444444,40.006510416666664,0)" xlink:href="#O"/><use transform="matrix(0.010850694444444444,0,0,0.010850694444444444,53.342013888888886,0)" xlink:href="#O"/><use transform="matrix(0.010850694444444444,0,0,0.010850694444444444,66.67751736111111,0)" xlink:href="#K"/><use transform="matrix(0.010850694444444444,0,0,0.010850694444444444,80.01302083333334,0)" xlink:href="#J"/></g><path fill="#333" d="M202-1349h823v156H709v1037h316V0H202v-156h316v-1037H202v-156" id="ab"/><path fill="#333" d="M715 0H502L69-1082h202c94 253 197 500 285 758 19 57 36 126 52 183 96-335 234-626 350-941h201" id="ac"/><g id="r"><use transform="matrix(0.010850694444444444,0,0,0.010850694444444444,0,0)" xlink:href="#ab"/><use transform="matrix(0.010850694444444444,0,0,0.010850694444444444,13.335503472222221,0)" xlink:href="#O"/><use transform="matrix(0.010850694444444444,0,0,0.010850694444444444,26.671006944444443,0)" xlink:href="#Z"/><use transform="matrix(0.010850694444444444,0,0,0.010850694444444444,40.006510416666664,0)" xlink:href="#K"/><use transform="matrix(0.010850694444444444,0,0,0.010850694444444444,53.342013888888886,0)" xlink:href="#S"/><use transform="matrix(0.010850694444444444,0,0,0.010850694444444444,66.67751736111111,0)" xlink:href="#J"/><use transform="matrix(0.010850694444444444,0,0,0.010850694444444444,80.01302083333334,0)" xlink:href="#K"/><use transform="matrix(0.010850694444444444,0,0,0.010850694444444444,93.34852430555557,0)" xlink:href="#G"/><use transform="matrix(0.010850694444444444,0,0,0.010850694444444444,106.6840277777778,0)" xlink:href="#ac"/><use transform="matrix(0.010850694444444444,0,0,0.010850694444444444,120.01953125000003,0)" xlink:href="#K"/><use transform="matrix(0.010850694444444444,0,0,0.010850694444444444,133.35503472222226,0)" xlink:href="#U"/></g><path fill="#333" d="M622-1349c296 4 497 117 497 404 0 282-193 424-485 431H353V0H162v-1349h460zm-15 684c195-3 320-88 320-277 0-184-129-255-328-254H353v531h254" id="ad"/><g id="s"><use transform="matrix(0.010850694444444444,0,0,0.010850694444444444,0,0)" xlink:href="#ad"/><use transform="matrix(0.010850694444444444,0,0,0.010850694444444444,13.335503472222221,0)" xlink:href="#J"/><use transform="matrix(0.010850694444444444,0,0,0.010850694444444444,26.671006944444443,0)" xlink:href="#G"/><use transform="matrix(0.010850694444444444,0,0,0.010850694444444444,40.006510416666664,0)" xlink:href="#O"/><use transform="matrix(0.010850694444444444,0,0,0.010850694444444444,53.342013888888886,0)" xlink:href="#G"/><use transform="matrix(0.010850694444444444,0,0,0.010850694444444444,66.67751736111111,0)" xlink:href="#S"/></g><path fill="#333" d="M385-1193v494h676v158H385V0H194v-1349h891v156H385" id="ae"/><g id="t"><use transform="matrix(0.013020833333333324,0,0,0.013020833333333324,0,0)" xlink:href="#ae"/><use transform="matrix(0.013020833333333324,0,0,0.013020833333333324,16.002604166666654,0)" xlink:href="#P"/><use transform="matrix(0.013020833333333324,0,0,0.013020833333333324,32.00520833333331,0)" xlink:href="#S"/></g><use transform="matrix(0.013020833333333324,0,0,0.013020833333333324,0,0)" xlink:href="#Y" id="u"/><g id="v"><use transform="matrix(0.013020833333333324,0,0,0.013020833333333324,0,0)" xlink:href="#W"/><use transform="matrix(0.013020833333333324,0,0,0.013020833333333324,16.002604166666654,0)" xlink:href="#S"/><use transform="matrix(0.013020833333333324,0,0,0.013020833333333324,32.00520833333331,0)" xlink:href="#G"/><use transform="matrix(0.013020833333333324,0,0,0.013020833333333324,48.00781249999996,0)" xlink:href="#H"/><use transform="matrix(0.013020833333333324,0,0,0.013020833333333324,64.01041666666661,0)" xlink:href="#K"/><use transform="matrix(0.013020833333333324,0,0,0.013020833333333324,80.01302083333327,0)" xlink:href="#F"/></g><g id="w"><use transform="matrix(0.013020833333333324,0,0,0.013020833333333324,0,0)" xlink:href="#G"/><use transform="matrix(0.013020833333333324,0,0,0.013020833333333324,16.002604166666654,0)" xlink:href="#O"/><use transform="matrix(0.013020833333333324,0,0,0.013020833333333324,32.00520833333331,0)" xlink:href="#U"/></g><path fill="#333" d="M937-319V0H757v-319H103v-140l635-890h199v888h188v142H937zm-180-835L257-461h500v-693" id="af"/><use transform="matrix(0.013020833333333324,0,0,0.013020833333333324,0,0)" xlink:href="#af" id="x"/><path fill="#333" d="M496 0v-299h235V0H496zm0-783v-299h235v299H496" id="ag"/><g id="y"><use transform="matrix(0.013020833333333324,0,0,0.013020833333333324,0,0)" xlink:href="#M"/><use transform="matrix(0.013020833333333324,0,0,0.013020833333333324,16.002604166666654,0)" xlink:href="#N"/><use transform="matrix(0.013020833333333324,0,0,0.013020833333333324,32.00520833333331,0)" xlink:href="#G"/><use transform="matrix(0.013020833333333324,0,0,0.013020833333333324,48.00781249999996,0)" xlink:href="#O"/><use transform="matrix(0.013020833333333324,0,0,0.013020833333333324,64.01041666666661,0)" xlink:href="#O"/><use transform="matrix(0.013020833333333324,0,0,0.013020833333333324,80.01302083333327,0)" xlink:href="#K"/><use transform="matrix(0.013020833333333324,0,0,0.013020833333333324,96.01562499999993,0)" xlink:href="#J"/><use transform="matrix(0.013020833333333324,0,0,0.013020833333333324,112.01822916666659,0)" xlink:href="#F"/><use transform="matrix(0.013020833333333324,0,0,0.013020833333333324,128.02083333333323,0)" xlink:href="#ag"/></g></defs></g></svg>